<?xml version="1.0" encoding="UTF-8"?>
<svg width="96px" height="96px" viewBox="0 0 96 96" version="1.1" xmlns="http://www.w3.org/2000/svg" xmlns:xlink="http://www.w3.org/1999/xlink">
    <!-- Generator: Sketch 42 (36781) - http://www.bohemiancoding.com/sketch -->
    <title>smiley</title>
    <desc>Created with Sketch.</desc>
    <defs></defs>
    <g id="With-Tabbar" stroke="none" stroke-width="1" fill="none" fill-rule="evenodd">
        <g id="iPhone-7-Copy-11" transform="translate(-140.000000, -145.000000)">
            <g id="smiley" transform="translate(140.000000, 145.000000)">
                <g id="Layer_1">
                    <g id="icomoon-ignore"></g>
                    <path d="M74,38 C72.9,38 72,37.104 72,36 C72,31.588 68.416,28 64,28 C59.584,28 56,31.588 56,36 C56,37.104 55.1,38 54,38 C52.9,38 52,37.104 52,36 C52,29.384 57.384,24 64,24 C70.616,24 76,29.384 76,36 C76,37.104 75.1,38 74,38 Z" id="Shape" fill="#9CB67F" fill-rule="nonzero"></path>
                    <path d="M42,38 C40.896,38 40,37.104 40,36 C40,31.588 36.412,28 32,28 C27.588,28 24,31.588 24,36 C24,37.104 23.104,38 22,38 C20.896,38 20,37.104 20,36 C20,29.384 25.384,24 32,24 C38.616,24 44,29.384 44,36 C44,37.104 43.104,38 42,38 Z" id="Shape" fill="#9CB67F" fill-rule="nonzero"></path>
                    <path d="M2,64.164 C0.896,64.164 0,63.264 0,62.164 C0,52.072 5.264,49.008 9.68,48.22 C14.12,47.428 16.624,48.584 17.948,49.692 C19.312,50.833 20.06,52.473 20.06,54.313 C20.06,56.444 19.164,57.729 18.416,58.436 C16.636,60.108 14.164,60.016 13.876,59.997 C12.776,59.921 11.936,58.981 12.004,57.877 C12.072,56.776 13.008,55.969 14.124,56.005 C14.416,56.025 15.244,55.944 15.688,55.517 C15.78,55.429 16.064,55.158 16.064,54.314 C16.064,53.65 15.84,53.142 15.384,52.753 C14.456,51.978 12.632,51.757 10.384,52.161 C7.644,52.652 4,54.221 4,62.168 C4,63.264 3.104,64.164 2,64.164 Z" id="Shape" fill="#9CB67F" fill-rule="nonzero"></path>
                    <path d="M67.628,83.984 C63.428,83.984 58.809,83.359 53.889,82.128 C51.54,81.46 49.573,80.356 47.996,78.816 C46.42,80.351 44.472,81.46 42.168,82.111 C37.188,83.359 32.568,83.984 28.368,83.984 C3.66,83.984 0.06,62.683 0.028,62.472 C-0.12,61.519 0.432,60.595 1.344,60.28 C2.252,59.96 3.26,60.34 3.74,61.172 C3.872,61.397 7.128,66.817 13.892,66.817 C18.536,66.817 23.796,64.296 29.52,59.329 C33.036,56.005 37.484,56.005 40.14,56.005 C43.044,56.005 45.808,57.058 47.996,58.944 C50.18,57.052 52.948,56.005 55.851,56.005 C58.511,56.005 62.955,56.005 66.536,59.39 C72.2,64.301 77.456,66.814 82.107,66.814 C88.863,66.814 92.128,61.398 92.263,61.166 C92.747,60.33 93.763,59.966 94.663,60.286 C95.571,60.609 96.115,61.529 95.972,62.47 C95.928,62.684 92.34,83.984 67.628,83.984 Z M48,73.72 C48.66,73.72 49.275,74.044 49.648,74.588 C50.879,76.384 52.652,77.624 54.919,78.268 C59.459,79.401 63.747,79.989 67.623,79.989 C79.851,79.989 86.039,74.213 89.123,69.176 C87.207,70.132 84.871,70.817 82.099,70.817 C76.467,70.817 70.328,67.973 63.847,62.352 C61.368,60 58.18,60 55.852,60 C53.424,60 51.124,61.116 49.552,63.064 C48.796,64 47.2,64 46.444,63.064 C44.868,61.116 42.576,60 40.144,60 C37.816,60 34.628,60 32.208,62.288 C25.672,67.964 19.532,70.809 13.896,70.809 L13.896,70.809 C11.116,70.809 8.788,70.132 6.88,69.172 C9.964,74.208 16.152,79.981 28.376,79.981 C32.248,79.981 36.544,79.397 41.14,78.233 C43.348,77.608 45.12,76.369 46.352,74.573 C46.724,74.044 47.34,73.72 48,73.72 Z" id="Shape" fill="#9CB67F" fill-rule="nonzero"></path>
                    <path d="M94,64.164 C92.9,64.164 92,63.264 92,62.164 C92,54.216 88.355,52.648 85.616,52.156 C83.372,51.756 81.552,51.976 80.616,52.756 C80.156,53.141 79.935,53.649 79.935,54.313 C79.935,55.157 80.215,55.428 80.312,55.516 C80.755,55.944 81.624,56.016 81.896,56 C82.98,56.02 83.927,56.805 83.98,57.9 C84.036,58.992 83.211,59.931 82.12,59.992 C81.84,60.008 79.359,60.111 77.576,58.435 C76.824,57.724 75.935,56.439 75.935,54.308 C75.935,52.467 76.687,50.828 78.043,49.687 C79.371,48.58 81.888,47.432 86.312,48.215 C90.728,49.003 95.992,52.068 95.992,62.159 C96,63.264 95.1,64.164 94,64.164 Z" id="Shape" fill="#9CB67F" fill-rule="nonzero"></path>
                    <path d="M2.788,58.527 C1.844,58.527 1.004,57.859 0.824,56.9 C0.276,53.98 0,50.988 0,48 C0,21.532 21.532,0 48,0 C74.468,0 96,21.532 96,48 C96,50.984 95.729,53.977 95.176,56.9 C94.973,57.984 93.944,58.708 92.844,58.488 C91.76,58.284 91.048,57.24 91.252,56.156 C91.752,53.484 92,50.744 92,48 C92,23.74 72.256,4 48,4 C23.74,4 4,23.74 4,48 C4,50.744 4.252,53.488 4.752,56.16 C4.956,57.244 4.24,58.292 3.156,58.492 C3.032,58.516 2.908,58.527 2.788,58.527 Z" id="Shape" fill="#9CB67F" fill-rule="nonzero"></path>
                    <path d="M48,96 C34.176,96 21.016,90.036 11.896,79.632 C11.168,78.8 11.252,77.54 12.08,76.809 C12.908,76.077 14.172,76.161 14.904,76.993 C23.268,86.527 35.328,91.996 48,91.996 C60.66,91.996 72.721,86.536 81.08,77.008 C81.812,76.176 83.072,76.092 83.908,76.828 C84.736,77.557 84.82,78.82 84.088,79.648 C74.964,90.044 61.813,96 48,96 Z" id="Shape" fill="#9CB67F" fill-rule="nonzero"></path>
                </g>
            </g>
        </g>
    </g>
</svg>